<svg width="40" height="47" viewBox="0 0 40 47" fill="none" xmlns="http://www.w3.org/2000/svg">
<path d="M1.42857 11.8818H38.5714C39.3604 11.8818 40 11.237 40 10.4416V6.84104C40 6.04559 39.3604 5.40082 38.5714 5.40082H1.42857C0.639554 5.40082 0 6.04559 0 6.84104V10.4416C0 11.237 0.639554 11.8818 1.42857 11.8818ZM1.42857 26.284H38.5714C39.3604 26.284 40 25.6392 40 24.8438V21.2432C40 20.4478 39.3604 19.803 38.5714 19.803H1.42857C0.639554 19.803 0 20.4478 0 21.2432V24.8438C0 25.6392 0.639554 26.284 1.42857 26.284ZM1.42857 40.6861H38.5714C39.3604 40.6861 40 40.0414 40 39.2459V35.6454C40 34.8499 39.3604 34.2052 38.5714 34.2052H1.42857C0.639554 34.2052 0 34.8499 0 35.6454V39.2459C0 40.0414 0.639554 40.6861 1.42857 40.6861Z" fill="black"/>
</svg>
